<?xml version="1.0" standalone="no"?><!DOCTYPE svg PUBLIC "-//W3C//DTD SVG 1.1//EN" "http://www.w3.org/Graphics/SVG/1.1/DTD/svg11.dtd"><svg t="1709466246417" class="icon" viewBox="0 0 1024 1024" version="1.1" xmlns="http://www.w3.org/2000/svg" p-id="8490" xmlns:xlink="http://www.w3.org/1999/xlink" width="200" height="200"><path d="M502.052571 900.242286c10.971429 0 20.114286-3.730286 27.648-11.264a41.472 41.472 0 0 0 12.288-27.648v-281.6l227.328-398.336a35.986286 35.986286 0 0 0 5.12-19.456 41.472 41.472 0 0 0-5.12-20.48 36.205714 36.205714 0 0 0-14.336-14.336 39.497143 39.497143 0 0 0-38.912 0 34.816 34.816 0 0 0-14.336 15.36l-199.68 367.616-198.656-367.616a37.156571 37.156571 0 0 0-34.816-20.48 43.593143 43.593143 0 0 0-19.456 5.12 36.205714 36.205714 0 0 0-14.336 14.336 41.472 41.472 0 0 0-5.12 20.48c0 7.533714 1.682286 13.970286 5.12 19.456l228.352 399.36v280.576c0 10.971429 3.730286 20.114286 11.264 27.648a37.595429 37.595429 0 0 0 27.648 11.264z" fill="#303133" p-id="8491"></path></svg>